# xmcd CD database file
#
# Track frame offsets:
#	150
#	17840
#	35342
#	53597
#	78060
#	92367
#
# Disc length: 1474 seconds
#
# Revision: 0
# Processed by: cddbd v1.5.2PL0 Copyright (c) Steve Scherf et al.
# Submitted via: CDex 1.51
#
DISCID=3205c006
DTITLE=Ronan Keating - Ronan (Promo)
DYEAR=2000
DGENRE=90's
TTITLE0=Life is a Rollecoaster (Album Version)
TTITLE1=The Way You Make Me Feel
TTITLE2=Keep on Walking
TTITLE3=Addicted
TTITLE4=In This Life
TTITLE5=Heal Me
EXTD=YEAR: 2000
EXTT0=
EXTT1=
EXTT2=
EXTT3=
EXTT4=
EXTT5=
PLAYORDER=
